#!OML:ASF H:\Pregnant\Project 1\Capture day 1\Session 1\femalepreg.ASF
:FULLY-SPECIFIED
:DEGREES
1956
root 4.15873 15.9085 0.787967 -674.605 -94.9373 694.322
lowerback -13.8442 3.7729 3.78878
upperback -7.42561 4.16213 -1.13076
thorax 0.274341 1.79231 -2.72483
lowerneck -18.4059 9.83271 10.5085
upperneck 25.775 12.4739 -6.54647
head 12.7485 5.67172 -2.11923
rclavicle 5.31749e-015 -1.03368e-014
rhumerus -39.7027 5.4265 -79.4083
rradius 50.1402
rwrist -17.3307
rhand -18.3074 -21.995
rfingers 7.12502
rthumb 7.97366 -51.8246
lclavicle 5.31749e-015 -1.03368e-014
lhumerus -42.7767 5.62236 69.378
lradius 26.4617
lwrist 39.8927
lhand -23.1643 -1.78754
lfingers 7.12502
lthumb 3.28446 28.1669
rfemur -38.676 13.9086 18.9341
rtibia 41.532
rfoot -17.8801 -16.3592
rtoes 0.980064
lfemur -32.1146 -4.216 -27.962
ltibia 27.0058
lfoot -13.6885 -8.18067
ltoes -8.934
1957
root 4.16968 15.9072 0.823205 -673.748 -95.2568 693.486
lowerback -13.6264 3.9801 4.46236
upperback -7.4937 4.3654 -1.1349
thorax 0.146591 1.87079 -3.08917
lowerneck -18.3472 9.97487 10.6251
upperneck 25.7815 12.7565 -6.88357
head 12.8051 5.76489 -2.21341
rclavicle 3.27995e-015 1.19271e-014
rhumerus -39.2006 5.53939 -79.4446
rradius 49.9465
rwrist -17.8462
rhand -18.4405 -22.2564
rfingers 7.12502
rthumb 7.8452 -52.0908
lclavicle 3.27995e-015 1.19271e-014
lhumerus -43.3407 5.74857 69.4386
lradius 26.7492
lwrist 39.6132
lhand -22.6988 -1.93194
lfingers 7.12502
lthumb 3.73402 28.0151
rfemur -38.9191 14.0649 18.4963
rtibia 41.7524
rfoot -17.8873 -16.5296
rtoes 0.673958
lfemur -32.3059 -3.86356 -28.3831
ltibia 27.2155
lfoot -13.6051 -8.55159
ltoes -9.31664
1958
root 4.18242 15.9071 0.859667 -672.279 -95.5452 692.052
lowerback -13.3893 4.15207 5.10303
upperback -7.57251 4.53079 -1.14903
thorax -0.00461997 1.9289 -3.45323
lowerneck -18.2416 10.1235 10.71
upperneck 25.746 13.0444 -7.16643
head 12.8304 5.86664 -2.28264
rclavicle -6.05051e-014 -2.78299e-014
rhumerus -38.7025 5.6402 -79.4817
rradius 49.7168
rwrist -18.318
rhand -18.5176 -22.4797
rfingers 7.12502
rthumb 7.77081 -52.3169
lclavicle -6.05051e-014 -2.78299e-014
lhumerus -43.9172 5.95304 69.4482
lradius 27.053
lwrist 39.2526
lhand -22.1697 -2.02495
lfingers 7.12502
lthumb 4.24488 27.9125
rfemur -39.182 14.1677 18.0152
rtibia 41.9759
rfoot -17.8969 -16.7234
rtoes 0.403665
lfemur -32.5105 -3.58748 -28.8229
ltibia 27.3881
lfoot -13.4548 -8.94226
ltoes -9.89041
1959
root 4.19582 15.9083 0.895004 -670.499 -95.815 690.281
lowerback -13.1169 4.29981 5.70784
upperback -7.64572 4.67581 -1.17929
thorax -0.169809 1.97653 -3.81969
lowerneck -18.1405 10.2695 10.8183
upperneck 25.7104 13.313 -7.42438
head 12.8558 5.96563 -2.34924
rclavicle 1.52567e-014 -2.38542e-015
rhumerus -38.2066 5.68044 -79.5306
rradius 49.4485
rwrist -18.7331
rhand -18.5944 -22.6929
rfingers 7.12502
rthumb 7.69661 -52.5328
lclavicle 1.52567e-014 -2.38542e-015
lhumerus -44.4812 6.15584 69.4266
lradius 27.3714
lwrist 38.8776
lhand -21.6017 -2.12341
lfingers 7.12502
lthumb 4.79339 27.8024
rfemur -39.4099 14.2782 17.5086
rtibia 42.2007
rfoot -17.9106 -16.9737
rtoes 0.150333
lfemur -32.6818 -3.35035 -29.2674
ltibia 27.5359
lfoot -13.2628 -9.36058
ltoes -10.6938
1960
root 4.21023 15.9099 0.930149 -668.37 -96.062 688.145
lowerback -12.8227 4.42501 6.29584
upperback -7.71364 4.80001 -1.23701
thorax -0.34069 2.0129 -4.21049
lowerneck -18.0471 10.4111 10.964
upperneck 25.6693 13.5587 -7.66888
head 12.8813 6.0601 -2.42029
rclavicle -8.45829e-014 -3.10104e-014
rhumerus -37.702 5.64039 -79.5981
rradius 49.1296
rwrist -19.0625
rhand -18.6447 -22.8679
rfingers 7.12502
rthumb 7.64805 -52.7096
lclavicle -8.45829e-014 -3.10104e-014
lhumerus -45.0228 6.39563 69.3446
lradius 27.6977
lwrist 38.4507
lhand -20.9407 -2.16454
lfingers 7.12502
lthumb 5.4316 27.7458
rfemur -39.6227 14.3595 16.9766
rtibia 42.4304
rfoot -17.9257 -17.249
rtoes -0.0843282
lfemur -32.8473 -3.18707 -29.7106
ltibia 27.6768
lfoot -13.0377 -9.77705
ltoes -11.7918
1961
root 4.22557 15.9119 0.964531 -666.058 -96.2914 685.816
lowerback -12.5157 4.52875 6.8615
upperback -7.7743 4.90446 -1.30986
thorax -0.512237 2.03911 -4.60901
lowerneck -17.9644 10.5499 11.1254
upperneck 25.6235 13.7845 -7.88104
head 12.9045 6.15164 -2.48451
rclavicle -3.51849e-014 -7.15625e-015
rhumerus -37.1933 5.57392 -79.7023
rradius 48.7922
rwrist -19.4398
rhand -18.8571 -23.1189
rfingers 7.12502
rthumb 7.44308 -52.968
lclavicle -3.51849e-014 -7.15625e-015
lhumerus -45.5407 6.65726 69.224
lradius 28.0289
lwrist 38.0083
lhand -20.19 -2.16752
lfingers 7.12502
lthumb 6.15637 27.723
rfemur -39.8192 14.4168 16.4331
rtibia 42.659
rfoot -17.9451 -17.5327
rtoes -0.297695
lfemur -33.0224 -3.07642 -30.1387
ltibia 27.8351
lfoot -12.8001 -10.206
ltoes -13.1655
1962
root 4.24148 15.9142 0.997914 -663.689 -96.504 683.424
lowerback -12.2092 4.61158 7.40558
upperback -7.82403 4.98816 -1.38578
thorax -0.67517 2.05536 -5.00219
lowerneck -17.8924 10.6871 11.2864
upperneck 25.5664 13.9962 -8.05909
head 12.9215 6.24154 -2.53759
rclavicle -3.27001e-014 -5.56597e-015
rhumerus -36.6737 5.50866 -79.8367
rradius 48.4397
rwrist -19.8686
rhand -19.2236 -23.4574
rfingers 7.12502
rthumb 7.08927 -53.3187
lclavicle -3.27001e-014 -5.56597e-015
lhumerus -46.0282 6.94236 69.0817
lradius 28.355
lwrist 37.5769
lhand -19.3778 -2.14822
lfingers 7.12502
lthumb 6.94046 27.718
rfemur -40.0009 14.4539 15.8911
rtibia 42.88
rfoot -17.9656 -17.8155
rtoes -0.498443
lfemur -33.2229 -3.00617 -30.5378
ltibia 28.0313
lfoot -12.5677 -10.6597
ltoes -14.8161
1963
root 4.25771 15.9166 1.02985 -661.391 -96.6945 681.105
lowerback -11.9155 4.6785 7.93751
upperback -7.86435 5.05492 -1.45823
thorax -0.824487 2.06349 -5.38706
lowerneck -17.8293 10.8196 11.4527
upperneck 25.4964 14.1928 -8.2201
head 12.9331 6.32773 -2.58725
rclavicle 7.7526e-015 7.95139e-016
rhumerus -36.1341 5.41125 -79.9764
rradius 48.0388
rwrist -20.2232
rhand -19.5729 -23.7608
rfingers 7.12502
rthumb 6.75215 -53.6331
lclavicle 7.7526e-015 7.95139e-016
lhumerus -46.4753 7.20533 68.9348
lradius 28.6715
lwrist 37.213
lhand -18.4814 -2.06336
lfingers 7.12502
lthumb 7.80568 27.7726
rfemur -40.1699 14.4785 15.3689
rtibia 43.0785
rfoot -17.9768 -18.0939
rtoes -0.697404
lfemur -33.4688 -2.95788 -30.8902
ltibia 28.2847
lfoot -12.3585 -11.1614
ltoes -16.6975
1964
root 4.27402 15.9198 1.06013 -659.293 -96.8601 678.999
lowerback -11.6479 4.72576 8.44634
upperback -7.89621 5.09825 -1.50249
thorax -0.958365 2.06104 -5.73127
lowerneck -17.753 10.9576 11.5797
upperneck 25.3954 14.3965 -8.34219
head 12.9237 6.41964 -2.61478
rclavicle 3.88624e-014 9.54166e-015
rhumerus -35.5716 5.32883 -80.1016
rradius 47.5849
rwrist -20.4732
rhand -19.8301 -23.9858
rfingers 7.12502
rthumb 6.50387 -53.8659
lclavicle 3.88624e-014 9.54166e-015
lhumerus -46.8984 7.48725 68.8011
lradius 28.9692
lwrist 36.9069
lhand -17.5502 -1.96482
lfingers 7.12502
lthumb 8.70441 27.8357
rfemur -40.3294 14.5007 14.8809
rtibia 43.2391
rfoot -17.9744 -18.3593
rtoes -0.884414
lfemur -33.7727 -2.95679 -31.1633
ltibia 28.6023
lfoot -12.1822 -11.6986
ltoes -18.7565
1965
root 4.28997 15.9243 1.08883 -657.487 -96.9918 677.205
lowerback -11.4102 4.77482 8.96847
upperback -7.92385 5.14226 -1.535
thorax -1.07191 2.05871 -6.06885
lowerneck -17.6851 11.088 11.7267
upperneck 25.2825 14.5861 -8.48007
head 12.9136 6.5054 -2.65354
rclavicle 4.29872e-014 2.70347e-014
rhumerus -35.0003 5.21732 -80.2266
rradius 47.0867
rwrist -20.6527
rhand -20.0745 -24.1799
rfingers 7.12502
rthumb 6.26785 -54.0672
lclavicle 4.29872e-014 2.70347e-014
lhumerus -47.269 7.69556 68.7065
lradius 29.2356
lwrist 36.7043
lhand -16.5993 -1.84307
lfingers 7.12502
lthumb 9.62196 27.9172
rfemur -40.4784 14.528 14.4442
rtibia 43.3481
rfoot -17.95 -18.6135
rtoes -1.08174
lfemur -34.14 -3.00987 -31.3321
ltibia 28.9823
lfoot -12.037 -12.2742
ltoes -20.94
1966
root 4.30524 15.9303 1.11623 -655.98 -97.1016 675.733
lowerback -11.2071 4.82775 9.48935
upperback -7.94648 5.1898 -1.54914
thorax -1.16272 2.05882 -6.38377
lowerneck -17.6222 11.2117 11.8593
upperneck 25.1555 14.7667 -8.61116
head 12.8962 6.58699 -2.68882
rclavicle -2.83765e-014 -1.27222e-014
rhumerus -34.4249 5.11036 -80.3501
rradius 46.5578
rwrist -20.7987
rhand -20.3585 -24.3993
rfingers 7.12502
rthumb 5.99372 -54.2945
lclavicle -2.83765e-014 -1.27222e-014
lhumerus -47.59 7.86791 68.653
lradius 29.4582
lwrist 36.565
lhand -15.6395 -1.71092
lfingers 7.12502
lthumb 10.548 28.0044
rfemur -40.6191 14.5567 14.0512
rtibia 43.4008
rfoot -17.8916 -18.8399
rtoes -1.30446
lfemur -34.5629 -3.09816 -31.4082
ltibia 29.4097
lfoot -11.916 -12.9098
ltoes -23.1734
1967
root 4.31975 15.9381 1.14265 -654.769 -97.1943 674.581
lowerback -11.0366 4.89235 10.0105
upperback -7.96984 5.25059 -1.55353
thorax -1.23509 2.06566 -6.68485
lowerneck -17.5628 11.3268 11.9899
upperneck 25.0216 14.9334 -8.73861
head 12.8752 6.66287 -2.72488
rclavicle -3.35449e-014 -4.77083e-015
rhumerus -33.8562 4.98108 -80.4644
rradius 45.9895
rwrist -20.8658
rhand -20.6494 -24.5803
rfingers 7.12502
rthumb 5.71282 -54.4833
lclavicle -3.35449e-014 -4.77083e-015
lhumerus -47.8519 7.96021 68.6505
lradius 29.6274
lwrist 36.5021
lhand -14.678 -1.56332
lfingers 7.12502
lthumb 11.4753 28.1026
rfemur -40.7581 14.5889 13.6962
rtibia 43.4012
rfoot -17.8056 -19.0338
rtoes -1.52188
lfemur -35.0309 -3.22342 -31.3945
ltibia 29.8608
lfoot -11.8142 -13.5946
ltoes -25.4819
1968
root 4.33348 15.9476 1.16839 -653.784 -97.2867 673.678
lowerback -10.8955 4.9696 10.515
upperback -7.99622 5.32737 -1.55817
thorax -1.29257 2.08092 -6.97308
lowerneck -17.5017 11.4322 12.1313
upperneck 24.8801 15.0821 -8.86635
head 12.85 6.73217 -2.7662
rclavicle 5.1684e-015 2.06736e-014
rhumerus -33.2972 4.80671 -80.5653
rradius 45.3741
rwrist -20.8199
rhand -20.8707 -24.6829
rfingers 7.12502
rthumb 5.49917 -54.5916
lclavicle 5.1684e-015 2.06736e-014
lhumerus -48.0593 7.98326 68.6872
lradius 29.741
lwrist 36.484
lhand -13.7232 -1.4105
lfingers 7.12502
lthumb 12.396 28.202
rfemur -40.9033 14.6189 13.3585
rtibia 43.364
rfoot -17.7036 -19.1877
rtoes -1.70984
lfemur -35.5253 -3.38337 -31.3118
ltibia 30.3059
lfoot -11.7114 -14.3379
ltoes -27.8274
1969
root 4.34633 15.9584 1.19379 -652.919 -97.4016 672.91
lowerback -10.7784 5.05538 10.9731
upperback -8.02419 5.41747 -1.56637
thorax -1.33816 2.10448 -7.23577
lowerneck -17.439 11.5276 12.2767
upperneck 24.734 15.2137 -8.9916
head 12.8212 6.79491 -2.81053
rclavicle 1.27222e-014 2.8625e-014
rhumerus -32.7502 4.59403 -80.649
rradius 44.7176
rwrist -20.6831
rhand -21.0573 -24.7121
rfingers 7.12502
rthumb 5.31904 -54.6253
lclavicle 1.27222e-014 2.8625e-014
lhumerus -48.2137 7.94004 68.7649
lradius 29.7932
lwrist 36.4906
lhand -12.7691 -1.26092
lfingers 7.12502
lthumb 13.3158 28.2937
rfemur -41.0579 14.6382 13.0102
rtibia 43.3073
rfoot -17.597 -19.2988
rtoes -1.85271
lfemur -36.0197 -3.58272 -31.1907
ltibia 30.7175
lfoot -11.6012 -15.12
ltoes -30.1889
1970
root 4.35816 15.9698 1.21931 -652.086 -97.5467 672.184
lowerback -10.6805 5.15026 11.3801
upperback -8.05533 5.52237 -1.58749
thorax -1.37497 2.13703 -7.48054
lowerneck -17.3685 11.6084 12.4266
upperneck 24.5831 15.3205 -9.10818
head 12.7858 6.84868 -2.85758
rclavicle 4.23908e-014 -3.02153e-014
rhumerus -32.2296 4.35277 -80.7275
rradius 44.0436
rwrist -20.5324
rhand -21.3027 -24.7303
rfingers 7.12502
rthumb 5.08206 -54.6494
lclavicle 4.23908e-014 -3.02153e-014
lhumerus -48.3181 7.82199 68.8825
lradius 29.7844
lwrist 36.5143
lhand -11.846 -1.12326
lfingers 7.12502
lthumb 14.2054 28.371
rfemur -41.2236 14.6364 12.6393
rtibia 43.2513
rfoot -17.4976 -19.3729
rtoes -1.96057
lfemur -36.4929 -3.80631 -31.0573
ltibia 31.0734
lfoot -11.4774 -15.9381
ltoes -32.4549
